<svg width="50" height="50" viewBox="0 0 512 512" fill="none" xmlns="http://www.w3.org/2000/svg">
<rect width="512" height="512" fill="#1E1E1E"/>
<rect width="19743" height="13560" transform="translate(-5481 -10093)" fill="transparent"/>
<g clip-path="url(#clip0_105_37)">
<path d="M15.923 166.957C5.633 194.691 0 224.686 0 256C0 287.314 5.633 317.311 15.923 345.043L256 367.304L496.077 345.043C506.367 317.311 512 287.314 512 256C512 224.686 506.367 194.691 496.077 166.957L256 144.696L15.923 166.957Z" fill="#F0F0F0"/>
<path d="M256 0C145.93 0 52.0941 69.472 15.9241 166.957H496.079C459.906 69.472 366.072 0 256 0V0Z" fill="#D80027"/>
<path d="M256 512C366.072 512 459.906 442.528 496.078 345.043H15.9241C52.0941 442.528 145.93 512 256 512V512Z" fill="#6DA544"/>
</g>
<defs>
<clipPath id="clip0_105_37">
<rect width="512" height="512" fill="white"/>
</clipPath>
</defs>
</svg>
